<?xml version="1.0" encoding="UTF-8" standalone="no"?>
<svg
   width="1500"
   height="1028.9999"
   viewBox="0 0 1500 1028.9999"
   version="1.1"
   id="SVGRoot"
   sodipodi:docname="Flag_of_the_8th_October_Revolutionary_Movement.svg"
   inkscape:version="1.4 (e7c3feb100, 2024-10-09)"
   xmlns:inkscape="http://www.inkscape.org/namespaces/inkscape"
   xmlns:sodipodi="http://sodipodi.sourceforge.net/DTD/sodipodi-0.dtd"
   xmlns="http://www.w3.org/2000/svg"
   xmlns:svg="http://www.w3.org/2000/svg"
   xmlns:rdf="http://www.w3.org/1999/02/22-rdf-syntax-ns#"
   xmlns:cc="http://creativecommons.org/ns#"
   xmlns:dc="http://purl.org/dc/elements/1.1/">
  <defs
     id="defs2318" />
  <sodipodi:namedview
     id="base"
     pagecolor="#ffffff"
     bordercolor="#666666"
     borderopacity="1.0"
     inkscape:pageopacity="0.0"
     inkscape:pageshadow="2"
     inkscape:zoom="0.24094461"
     inkscape:cx="821.76565"
     inkscape:cy="564.44509"
     inkscape:document-units="px"
     inkscape:current-layer="g918"
     inkscape:document-rotation="0"
     showgrid="false"
     inkscape:window-width="1233"
     inkscape:window-height="761"
     inkscape:window-x="84"
     inkscape:window-y="174"
     inkscape:window-maximized="0"
     fit-margin-top="0"
     fit-margin-left="0"
     fit-margin-right="0"
     fit-margin-bottom="0"
     inkscape:showpageshadow="2"
     inkscape:pagecheckerboard="0"
     inkscape:deskcolor="#d1d1d1" />
  <metadata
     id="metadata2321">
    <rdf:RDF>
      <cc:Work
         rdf:about="">
        <dc:format>image/svg+xml</dc:format>
        <dc:type
           rdf:resource="http://purl.org/dc/dcmitype/StillImage" />
        <dc:title />
      </cc:Work>
    </rdf:RDF>
  </metadata>
  <g
     inkscape:label="Layer 1"
     inkscape:groupmode="layer"
     id="layer1"
     transform="translate(-4.469576e-6,-4.74254e-5)">
    <g
       id="g918"
       transform="matrix(11.338581,0,0,11.338581,-146.51596,-1129.9291)">
      <rect
         style="fill:#0f6c37;fill-opacity:1;fill-rule:evenodd;stroke:none;stroke-width:1.05833;paint-order:stroke fill markers"
         id="rect871"
         width="132.29167"
         height="90.752083"
         x="12.921902"
         y="99.653488" />
      <path
         id="path873"
         style="fill:#ffed2a;fill-opacity:1;fill-rule:evenodd;stroke:none;stroke-width:1.05833;paint-order:stroke fill markers"
         d="M 25.001096,99.653489 145.21358,145.27169 v 45.13388 H 76.689216 L 12.921896,110.42813 V 99.653489 Z"
         sodipodi:nodetypes="ccccccc" />
      <path
         sodipodi:type="star"
         style="fill:#d40000;fill-opacity:1;fill-rule:evenodd;stroke:none;stroke-width:1.36344;paint-order:stroke fill markers"
         id="path875"
         sodipodi:sides="5"
         sodipodi:cx="23.525158"
         sodipodi:cy="109.09032"
         sodipodi:r1="7.2527065"
         sodipodi:r2="2.7560284"
         sodipodi:arg1="-1.5707963"
         sodipodi:arg2="-0.94247777"
         inkscape:flatsided="false"
         inkscape:rounded="0"
         inkscape:randomized="0"
         inkscape:transform-center-y="-0.69257393"
         d="m 23.525158,101.83761 1.619953,5.02303 5.277781,-0.0115 -4.276595,3.09287 1.641895,5.0159 -4.263034,-3.11153 -4.263034,3.11153 1.641895,-5.0159 -4.276595,-3.09287 5.277781,0.0115 z" />
      <g
         id="text881"
         style="font-weight:bold;font-size:21.1667px;line-height:0.9;-inkscape-font-specification:'sans-serif Bold';letter-spacing:-0.705556px;fill:#d40000;stroke-width:0.617361"
         aria-label="PÁTRIA&#10;LIVRE">
        <path
           style="font-weight:800;font-family:'Open Sans';-inkscape-font-specification:'Open Sans Ultra-Bold';text-align:end;text-anchor:end;fill:#0f6c37"
           d="m 81.285578,156.13719 q 0,2.53214 -1.498619,3.91708 -1.488284,1.37459 -4.237474,1.37459 h -1.147219 v 5.01262 h -4.082444 v -15.11021 h 5.229663 q 2.862879,0 4.299486,1.25057 1.436607,1.25057 1.436607,3.55535 z m -6.883312,1.9637 h 0.744142 q 0.919842,0 1.457278,-0.51676 0.547771,-0.51677 0.547771,-1.42627 0,-1.52963 -1.69499,-1.52963 h -1.054201 z m 16.802448,8.34059 -0.744142,-2.83187 h -4.909269 l -0.764813,2.83187 h -4.485521 l 4.929939,-15.17222 h 5.446705 l 4.991951,15.17222 z m -1.591637,-6.18051 -0.651124,-2.48047 q -0.227377,-0.82683 -0.558107,-2.13941 -0.320394,-1.31258 -0.423747,-1.88102 -0.09302,0.5271 -0.372071,1.73633 -0.268718,1.20923 -1.20923,4.76457 z M 85.79935,150.12204 v -0.29972 q 1.591637,-1.70533 2.015384,-2.20142 0.434083,-0.4961 0.713136,-0.88884 h 4.42351 v 0.21704 q -0.826824,0.66146 -2.273767,1.68466 -1.446942,1.02319 -2.191084,1.48828 z m 15.98596,16.31944 h -4.082445 v -11.77191 h -3.689704 v -3.3383 h 11.451519 v 3.3383 h -3.67937 z m 9.21633,-5.49838 v 5.49838 h -4.08244 v -15.11021 h 4.95061 q 6.15984,0 6.15984,4.46485 0,2.62517 -2.56316,4.06177 l 4.40284,6.58359 h -4.63021 l -3.20395,-5.49838 z m 0,-3.06958 h 0.76482 q 2.1394,0 2.1394,-1.89136 0,-1.56063 -2.09806,-1.56063 h -0.80616 z m 9.53673,8.56796 v -15.11021 h 4.10312 v 15.11021 z m 15.93428,0 -0.74414,-2.83187 h -4.90927 l -0.76481,2.83187 h -4.48552 l 4.92994,-15.17222 h 5.4467 l 4.99195,15.17222 z m -1.59163,-6.18051 -0.65113,-2.48047 q -0.22737,-0.82683 -0.5581,-2.13941 -0.3204,-1.31258 -0.42375,-1.88102 -0.093,0.5271 -0.37207,1.73633 -0.26872,1.20923 -1.20923,4.76457 z"
           id="path13" />
        <path
           style="font-weight:800;font-family:'Open Sans';-inkscape-font-specification:'Open Sans Ultra-Bold';text-align:end;text-anchor:end;fill:#0f6c37"
           d="m 84.370323,185.99583 v -15.11021 h 4.082444 v 11.81325 h 5.818776 v 3.29696 z m 11.614125,0 v -15.11021 h 4.103112 v 15.11021 z m 15.148802,-15.11021 h 4.5682 l -4.95061,15.11021 h -4.80592 l -4.92994,-15.11021 h 4.58888 l 2.05672,7.65846 q 0.64079,2.55282 0.7028,3.55534 0.0724,-0.72347 0.28939,-1.80867 0.21704,-1.08521 0.38241,-1.70533 z m 9.57807,9.61183 v 5.49838 h -4.08245 v -15.11021 h 4.95061 q 6.15984,0 6.15984,4.46485 0,2.62517 -2.56315,4.06177 l 4.40284,6.58359 h -4.63022 l -3.20394,-5.49838 z m 0,-3.06958 h 0.76481 q 2.13941,0 2.13941,-1.89136 0,-1.56063 -2.09807,-1.56063 h -0.80615 z m 18.50777,8.56796 h -8.97104 v -15.11021 h 8.97104 v 3.27629 h -4.8886 v 2.37712 h 4.52686 v 3.27629 h -4.52686 v 2.85255 h 4.8886 z"
           id="path14" />
      </g>
    </g>
  </g>
</svg>
