<svg xmlns="http://www.w3.org/2000/svg" xml:space="preserve" id="svg12" width="200mm" height="607.87" version="1.1" viewBox="0 0 200 160.83"><defs id="defs9"><style id="style137428" type="text/css">path{stroke-linejoin:bevel;stroke-width:.25}</style></defs><g id="layer1" transform="translate(-1742.72 4840.25)"><g id="g27765" transform="translate(370.5 -1029.03)scale(.7874)"><path id="rect26267" d="M1742.72-4840.25h254v204.26h-254z" style="font-variation-settings:normal;opacity:1;fill:#193883;fill-opacity:1;stroke:none;stroke-width:.499999;stroke-linecap:butt;stroke-linejoin:miter;stroke-miterlimit:4;stroke-dasharray:none;stroke-dashoffset:0;stroke-opacity:1;stop-color:#000;stop-opacity:1"/><path id="rect26735" d="m1869.72-4840.25 127 102.13-127 102.13-127-102.13z" style="opacity:1;fill:#fff;stroke-width:.499999;stop-color:#000;stop-opacity:1"/><path id="rect26735-7" d="m1869.72-4824.16 107 86.04-107 86.05-107-86.05z" style="fill:#fef303;fill-opacity:1;stroke-width:.421259;stroke-linejoin:bevel;stop-color:#000"/><path id="path27562" d="M1869.72-4809.69a37.2 37.2 0 0 0-37.18 37.18 37 37 0 0 0 1.43 10.15 37.2 37.2 0 0 0-29.32 36.33 37.2 37.2 0 0 0 37.18 37.18 37.2 37.2 0 0 0 27.88-12.62 37 37 0 0 0 1.6 1.73 37.2 37.2 0 0 0 52.59 0 37.2 37.2 0 0 0 0-52.58 37 37 0 0 0-18.44-10.03 37 37 0 0 0 1.44-10.16 37.2 37.2 0 0 0-37.18-37.18m0 5a32.2 32.2 0 0 1 32.18 32.18 32 32 0 0 1-1.44 9.43 37.2 37.2 0 0 0-29.15 10.76 37 37 0 0 0-1.6 1.72 37.2 37.2 0 0 0-27.88-12.61 37 37 0 0 0-2.86.11 32 32 0 0 1-1.43-9.4 32.2 32.2 0 0 1 32.18-32.2m-10.47 19.85v24.66h7.66v-9.15h4.17q4.61 0 6.85-2.1 2.25-2.1 2.25-5.84 0-3.64-2.07-5.6-2.05-1.97-6.19-1.97zm7.66 5.01h2.17q2.14 0 2.91.81.78.81.77 1.97 0 1.2-.89 1.97-.89.75-3.1.75h-1.86zm-25.08 21.62a32.2 32.2 0 0 1 24.78 11.68 37 37 0 0 0-3.06 5.58 32.2 32.2 0 0 1-22.62-17.23zm54.44.02a32 32 0 0 1 2.24 0 32.2 32.2 0 0 1-22.65 17.25 37 37 0 0 0-3.04-5.6 32 32 0 0 1 2.03-2.25 32.2 32.2 0 0 1 21.42-9.4m7.48.58a32 32 0 0 1 16.61 8.82 32.2 32.2 0 0 1 0 45.51 32.2 32.2 0 0 1-45.51 0 32 32 0 0 1-2.03-2.24 37 37 0 0 0 6.2-20.51 37 37 0 0 0-1.44-10.15 37.2 37.2 0 0 0 26.17-21.43m-68.06.01a37.2 37.2 0 0 0 26.16 21.42 37.2 37.2 0 0 0 4.77 30.67 32.2 32.2 0 0 1-24.79 11.66 32.2 32.2 0 0 1-32.18-32.18 32.2 32.2 0 0 1 26.04-31.56m34.02 15.55a32 32 0 0 1 .9 1.69l-.9.03-.91-.03a32 32 0 0 1 .91-1.7m-27.66 3.27q-3.86 0-6.07.97a7.3 7.3 0 0 0-3.32 2.66 6.5 6.5 0 0 0-1.1 3.58q0 2.9 2.16 4.77 2.14 1.86 7.15 3 3.07.66 3.9 1.42.85.76.85 1.72 0 1.01-.9 1.78-.87.76-2.5.76-2.19 0-3.37-1.5a5.5 5.5 0 0 1-.96-2.7l-7.25.46a9.6 9.6 0 0 0 2.75 6.16q2.42 2.42 8.71 2.42 3.59 0 5.94-1.02a8.3 8.3 0 0 0 3.67-3.05 8 8 0 0 0 1.31-4.37q0-2.02-1-3.65a7.4 7.4 0 0 0-3.14-2.73q-2.15-1.11-7.15-2.19-2.02-.42-2.56-.9-.55-.48-.55-1.07 0-.8.67-1.36.68-.57 2-.57 1.62 0 2.53.76.92.75 1.2 2.42l7.2-.42q-.47-3.84-2.97-5.59-2.48-1.76-7.2-1.76m45.8.42v24.66h19.51v-6.07h-11.9v-18.6zm-21.01 2.92a37 37 0 0 0 2.88.11 37 37 0 0 0 2.86-.1 32 32 0 0 1 1.43 9.4 32 32 0 0 1-4.28 16.05 32.2 32.2 0 0 1-2.9-25.46" style="font-weight:900;font-size:55.5807px;font-family:Arial;-inkscape-font-specification:&quot;Arial, Heavy&quot;;baseline-shift:baseline;fill:#183881;fill-opacity:1;stroke-width:5.42673"/><path id="path27564" d="M1936.8-4684.18a17.5 17.5 0 0 1-4.8 6.19q-3.07 2.5-8.62 4.3v8.9q3.76-1.14 6.24-2.4a33 33 0 0 0 5.18-3.28v26.07h10.99v-39.78zm21 .67v9.17h19.31q-5.95 7.39-8.7 13.88-2.74 6.48-4.03 16.06h10.84a56 56 0 0 1 2.08-11.93 47 47 0 0 1 5.3-11.76q2.79-4.35 6.92-8.09v-7.33z" style="font-weight:900;font-size:55.5807px;font-family:Arial;-inkscape-font-specification:&quot;Arial, Heavy&quot;;baseline-shift:baseline;fill:#fef303;fill-opacity:1;stroke-width:8.60419"/></g></g></svg>